<svg xmlns="http://www.w3.org/2000/svg" viewBox="0 0 64 64">
  <rect width="64" height="64" rx="14" fill="#9b1b30"/>
  <g fill="none" stroke="#faf5e9" stroke-width="3" stroke-linecap="round" stroke-linejoin="round">
    <ellipse cx="32" cy="36" rx="17" ry="5.5"/>
    <path d="M15 36c.8 8 7.6 14 17 14s16.2-6 17-14"/>
    <path d="M20 32c2.4-3 5-2.4 7-.5 2.2 2.2 5 2.4 7 0 2-2 4-2.2 6-.9"/>
    <path d="M27 24c-.9-2 .9-2.8.2-4.8-.5-1.3.5-2.5 0-3.8"/>
    <path d="M35 23c.9-1.8-.7-2.6 0-4.4.5-1.3-.4-2.6 0-4"/>
    <path d="M42 25c.7-1.5-.5-2.4 0-4 .4-1.3-.4-2.6 0-4"/>
  </g>
</svg>
